<svg xmlns="http://www.w3.org/2000/svg" width="24" height="24" fill="none" viewBox="0 0 24 24" id="contact"><path fill="url(#paint0_linear_1233_4624)" fill-rule="evenodd" d="M2 1C1.44772 1 1 1.44772 1 2V22C1 22.5523 1.44772 23 2 23H16C16.5523 23 17 22.5523 17 22V2C17 1.44772 16.5523 1 16 1H2ZM3 21V3H15V21H3ZM8 9C8 8.44772 8.44772 8 9 8C9.55228 8 10 8.44772 10 9C10 9.55228 9.55228 10 9 10C8.44772 10 8 9.55228 8 9ZM9 6C7.34315 6 6 7.34315 6 9C6 10.6569 7.34315 12 9 12C6.23858 12 4 14.2386 4 17C4 17.5523 4.44772 18 5 18H13C13.5523 18 14 17.5523 14 17C14 14.2386 11.7614 12 9 12C10.6569 12 12 10.6569 12 9C12 7.34315 10.6569 6 9 6ZM11.8293 16C11.4175 14.8348 10.3062 14 9 14C7.69378 14 6.58254 14.8348 6.17071 16H11.8293ZM18.5 1C17.9477 1 17.5 1.44772 17.5 2V7C17.5 7.55228 17.9477 8 18.5 8H20C21.3807 8 22.5 6.88071 22.5 5.5V3.5C22.5 2.11929 21.3807 1 20 1H18.5ZM19.5 6V3H20C20.2761 3 20.5 3.22386 20.5 3.5V5.5C20.5 5.77614 20.2761 6 20 6H19.5ZM17.5 9.5C17.5 8.94772 17.9477 8.5 18.5 8.5H20C21.3807 8.5 22.5 9.61929 22.5 11V13C22.5 14.3807 21.3807 15.5 20 15.5H18.5C17.9477 15.5 17.5 15.0523 17.5 14.5V9.5ZM19.5 13.5H20C20.2761 13.5 20.5 13.2761 20.5 13V11C20.5 10.7239 20.2761 10.5 20 10.5H19.5V13.5ZM18.5 16C17.9477 16 17.5 16.4477 17.5 17V22C17.5 22.5523 17.9477 23 18.5 23H20C21.3807 23 22.5 21.8807 22.5 20.5V18.5C22.5 17.1193 21.3807 16 20 16H18.5ZM19.5 21V18H20C20.2761 18 20.5 18.2239 20.5 18.5V20.5C20.5 20.7761 20.2761 21 20 21H19.5Z" clip-rule="evenodd"></path><defs><linearGradient id="paint0_linear_1233_4624" x1="11.75" x2="11.75" y1="1" y2="23" gradientUnits="userSpaceOnUse"><stop stop-color="#57EAEA"></stop><stop offset="1" stop-color="#2BC9FF"></stop></linearGradient></defs></svg>