<svg xmlns="http://www.w3.org/2000/svg" xmlns:xlink="http://www.w3.org/1999/xlink" width="32" height="32" id="bulding"><defs><linearGradient id="a"><stop offset="0" stop-color="#ffd800"></stop><stop offset="1" stop-color="#ff6100"></stop></linearGradient><linearGradient id="b" x1="906.952" x2="931.379" y1="515.915" y2="546.094" gradientTransform="translate(-925.812 491.682) scale(1.02524)" gradientUnits="userSpaceOnUse" xlink:href="#a"></linearGradient></defs><g transform="translate(0 -1020.362)"><rect width="32" height="32" y="1020.362" fill="url(#b)" rx="6.763" ry="6.763"></rect><path style="text-indent:0;text-align:start;line-height:normal;text-transform:none;block-progression:tb" fill="#fff" fill-rule="evenodd" d="M15.875 8a.501.501 0 0 0-.25.156l-7.469 7.531a.501.501 0 0 0 .688.72L10 15.25V21c0 1.04.097 1.81.625 2.344.528.534 1.302.656 2.344.656h6c1.041 0 1.839-.126 2.375-.656S22 22.043 22 21v-5.75l1.125 1.156a.501.501 0 0 0 .375.157.501.501 0 0 0 .031-1.032h.157L22 13.844v-2.906a.5.5 0 0 0-.5-.5.5.5 0 0 0-.5.5v1.874l-4.656-4.656A.501.501 0 0 0 16 8a.501.501 0 0 0-.125 0zM16 9.219l5 5.031V21c0 .957-.153 1.437-.375 1.656-.222.22-.698.344-1.656.344H18v-4.5a.5.5 0 0 0-.5-.5h-3a.5.5 0 0 0-.5.5V23h-1.031c-.959 0-1.411-.128-1.625-.344C11.13 22.44 11 21.96 11 21v-6.75l5-5.031zM16 12c-1.099 0-2 .901-2 2s.901 2 2 2 2-.901 2-2-.901-2-2-2zm0 1c.558 0 1 .442 1 1s-.442 1-1 1-1-.442-1-1 .442-1 1-1zm-1 6h2v4h-2v-4z" color="#000" font-family="sans-serif" font-weight="400" overflow="visible" transform="translate(0 1020.362)"></path></g></svg>