<svg xmlns="http://www.w3.org/2000/svg" xmlns:xlink="http://www.w3.org/1999/xlink" viewBox="0 0 48 48" id="contact-book"><defs><linearGradient id="a" x1="25.55" x2="25.55" y1="18.06" y2="30.04" gradientUnits="userSpaceOnUse"><stop offset="0" stop-color="#03001e"></stop><stop offset=".31" stop-color="#7303c0"></stop><stop offset=".64" stop-color="#ec38bc"></stop><stop offset="1" stop-color="#fdeff9"></stop></linearGradient><linearGradient id="b" x1="24" x2="24" y1="3.16" y2="44.73" xlink:href="#a"></linearGradient></defs><path fill="url(#a)" d="M26.92,23.76c2.49-1.41,1.57-5.71-1.37-5.7-2.94,0-3.86,4.29-1.37,5.7-1.94,.59-3.37,2.4-3.37,4.54v1.25c0,.65,1,.65,1,0v-1.25c0-2.06,1.68-3.74,3.74-3.74s3.74,1.68,3.74,3.74v1.25c0,.66,1,.65,1,0v-1.25c0-2.14-1.42-3.95-3.37-4.54Zm-1.37-.62c-2.41-.07-2.41-4.01,0-4.08,2.41,.07,2.41,4.01,0,4.08Z"></path><path fill="url(#b)" d="M24,3.16C12.51,3.16,3.16,12.51,3.16,24c1.15,27.65,40.54,27.64,41.68,0,0-11.49-9.35-20.84-20.84-20.84Zm-10.5,14.31h1.85c.63,0,.63,.96,0,.96h-1.85v-.96Zm0,6h1.85c.27,0,.48,.21,.48,.48s-.21,.48-.48,.48h-1.85v-.96Zm0,6h1.85c.27,0,.48,.21,.48,.48s-.21,.48-.48,.48h-1.85v-.96Zm4,5.98h-2.5c-.83,0-1.5-.67-1.5-1.5v-2.52h1.85c.82,0,1.48-.66,1.48-1.48s-.66-1.48-1.48-1.48h-1.85v-3.04h1.85c.82,0,1.48-.66,1.48-1.48s-.66-1.48-1.48-1.48h-1.85v-3.04h1.85c.82,0,1.48-.66,1.48-1.48s-.66-1.48-1.48-1.48h-1.85v-2.52c0-.83,.67-1.5,1.5-1.5h2.5v23Zm17-2.5c0,1.38-1.12,2.5-2.5,2.5h-13.5V12.45h13.5c1.38,0,2.5,1.12,2.5,2.5v18Z"></path></svg>