<svg xmlns="http://www.w3.org/2000/svg" width="24" height="24" fill="none" viewBox="0 0 24 24" id="login"><path fill="url(#paint0_linear_1233_4795)" fill-rule="evenodd" d="M8 4C8 3.44772 8.44772 3 9 3H21C21.5523 3 22 3.44772 22 4V20C22 20.5523 21.5523 21 21 21H9C8.44772 21 8 20.5523 8 20V17C8 16.4477 8.44772 16 9 16C9.55228 16 10 16.4477 10 17V19H20V5H10V7C10 7.55228 9.55228 8 9 8C8.44772 8 8 7.55228 8 7V4ZM10.7929 7.79289C11.1834 7.40237 11.8166 7.40237 12.2071 7.79289L15.7071 11.2929C16.0976 11.6834 16.0976 12.3166 15.7071 12.7071L12.2071 16.2071C11.8166 16.5976 11.1834 16.5976 10.7929 16.2071C10.4024 15.8166 10.4024 15.1834 10.7929 14.7929L12.5858 13H3C2.44772 13 2 12.5523 2 12C2 11.4477 2.44772 11 3 11H12.5858L10.7929 9.20711C10.4024 8.81658 10.4024 8.18342 10.7929 7.79289Z" clip-rule="evenodd"></path><defs><linearGradient id="paint0_linear_1233_4795" x1="12" x2="12" y1="3" y2="21" gradientUnits="userSpaceOnUse"><stop stop-color="#57EAEA"></stop><stop offset="1" stop-color="#2BC9FF"></stop></linearGradient></defs></svg>