<svg xmlns="http://www.w3.org/2000/svg" xmlns:xlink="http://www.w3.org/1999/xlink" width="28" height="28" id="music"><defs><linearGradient id="b" x1="868.253" x2="937.656" y1="521.354" y2="588.736" gradientTransform="translate(-774.065 -462.595) scale(.89708)" gradientUnits="userSpaceOnUse" xlink:href="#a"></linearGradient><linearGradient id="a"><stop offset="0" stop-color="#24f3d2"></stop><stop offset=".394" stop-color="#0674f0"></stop><stop offset=".507" stop-color="#6961b5"></stop><stop offset=".813" stop-color="#f34660"></stop><stop offset="1" stop-color="#ee078d"></stop></linearGradient></defs><rect width="28" height="28" fill="url(#b)" rx="5.917" ry="5.917"></rect><path fill="#fff" d="M18.48 7a.5.5 0 0 0-.106.016l-8 2a.5.5 0 0 0-.378.484v7.781a1.969 1.969 0 0 0-1-.28c-1.1 0-2 .9-2 2 0 1.098.9 2 2 2 1.06 0 1.928-.843 1.988-1.89a.498.498 0 0 0 .012-.11v-5.61l7-1.75v3.64a1.969 1.969 0 0 0-1-.28c-1.1 0-2 .9-2 2 0 1.098.9 2 2 2 1.06 0 1.928-.843 1.988-1.89a.498.498 0 0 0 .012-.11v-5.934a.5.5 0 0 0 0-.133V7.5a.5.5 0 0 0-.516-.5zm-.484 1.14v2.47l-7 1.75V9.89zm-1 7.86c.558 0 1 .442 1 1s-.442 1-1 1c-.559 0-1-.442-1-1s.441-1 1-1zm-8 2c.558 0 1 .442 1 1s-.442 1-1 1c-.559 0-1-.442-1-1s.441-1 1-1z" color="#000" font-family="sans-serif" font-weight="400" overflow="visible" style="line-height:normal;text-indent:0;text-align:start;text-decoration-line:none;text-decoration-style:solid;text-decoration-color:#000;text-transform:none;block-progression:tb;isolation:auto;mix-blend-mode:normal"></path></svg>